<svg xmlns="http://www.w3.org/2000/svg" xmlns:xlink="http://www.w3.org/1999/xlink" width="297.69" height="177.768" viewBox="0 0 297.69 177.768">
  <defs>
    <linearGradient id="linear-gradient" y1="0.844" x2="0.863" gradientUnits="objectBoundingBox">
      <stop offset="0" stop-color="#1657fd"/>
      <stop offset="1" stop-color="#06d0f4"/>
    </linearGradient>
    <linearGradient id="linear-gradient-48" x1="0.5" x2="0.5" y2="1" gradientUnits="objectBoundingBox">
      <stop offset="0" stop-color="#1562fc"/>
      <stop offset="1" stop-color="#05d4f4"/>
    </linearGradient>
  </defs>
  <g id="Logo_Big-white" transform="translate(-33.5 -89.5)">
    <path id="Union_5" data-name="Union 5" d="M58.048,87.072V77.408h9.665v9.664Zm-19.332,0V77.408h9.667v9.664Zm-19.333,0V77.408h9.667v9.664Zm29-9.666V67.741h9.668v9.666Zm-19.33,0V67.741h9.665v9.666Zm-19.331,0v-.051H9.707V67.688h9.668v.052h.009v9.666ZM67.7,77.382V67.716h.013V67.7h9.668v9.664h-.017v.017Zm9.707-9.666V58.049H67.74V48.383h9.668v9.666h9.664v9.667ZM0,67.688V58.023H9.667v9.666Zm9.667-9.667V48.357H0V38.691H9.667v9.666h9.665v9.664Zm25.438-2.105,2.909-12.364a9.244,9.244,0,1,1,11.027.012l2.905,12.352Zm42.3-7.533V38.719H67.74V29.051h9.668v9.667h9.664v9.664ZM9.667,38.691V29.025H0V19.359H9.667v9.666h9.665v9.666Zm67.74-9.64V19.387h9.664v9.664ZM67.74,19.384v-.009h-.052V9.707h9.665V9.72h.054v9.664Zm-48.407-.026H9.667V9.692h.025V9.667h9.664v9.666h-.023Zm29.023-.025h0V9.667H38.689V0h9.667V9.667H58.02v9.666ZM48.356,19.333Zm-19.333,0h0V9.667H19.356V0h9.668V9.667h9.666v9.666ZM29.023,19.333Zm29-9.666V0h9.668V9.667Z" transform="translate(139.92 89.999)" stroke="rgba(0,0,0,0)" stroke-miterlimit="10" stroke-width="1" fill="url(#linear-gradient)"/>
    <g id="Group_245" data-name="Group 245" transform="translate(34 211.436)">
      <path id="Union_2" data-name="Union 2" d="M213.7,27.548c-2.378-2.292-3.591-5.666-3.591-10.12V0h7.353V17.254c0,2.509.562,4.326,1.643,5.536a5.9,5.9,0,0,0,4.54,1.817,6,6,0,0,0,4.54-1.73c1.081-1.168,1.645-2.985,1.645-5.406V0h7.351V17.212a17.016,17.016,0,0,1-.951,6.011,11.458,11.458,0,0,1-2.681,4.281,11.511,11.511,0,0,1-4.326,2.638,17.913,17.913,0,0,1-5.665.866C219.361,31.008,216.074,29.84,213.7,27.548Zm-57.782,3.2L143.588,0h8.044l7.611,20.542L166.855,0h7.871L162.4,30.748Zm40.914-.044-8.823-21.71-6.356,15.613h6.7v6.1H171.7L184.719.043h6.7L204.482,30.7Zm45.974-.13V0h7.353V24.261h15.136v6.313Zm-132.947,0V0h7.352V24.261h15.135v6.313ZM0,30.574V0H12.713C20.2,0,24.176,3.547,24.693,10.594c0,3.59-1.21,6.271-3.675,8.132a14.913,14.913,0,0,1-9.169,2.766L7.741,15.309h4.54c3.115,0,4.757-1.515,4.974-4.5,0-2.941-1.732-4.454-5.1-4.541h-4.8v24.3Zm280.127-.043V6.4h-9.211V0H296.69V6.4h-9.212V30.532Zm-199.422,0V12.195h14.7V18.38H87.321v5.967H104.23v6.185Zm-14.1,0-6.53-9.99L53.5,30.532H45.239l10.64-15.526L45.671,0h8.478l6.1,9.428L66.386,0h8.262L64.441,14.92,75.08,30.532Zm-34.338,0V0h7.351V30.532ZM80.7,6.226V.043H104.23V6.226Z" transform="translate(0)" fill="#fff" stroke="rgba(0,0,0,0)" stroke-miterlimit="10" stroke-width="1"/>
      <path id="Union_1" data-name="Union 1" d="M104.378,10.568a5.854,5.854,0,0,1-1.73-4.311,5.857,5.857,0,0,1,1.7-4.229A6.289,6.289,0,0,1,108.79.182H114V2.628H108.79a2.936,2.936,0,0,0-2.248,1.048,3.663,3.663,0,0,0-.95,2.546,3.664,3.664,0,0,0,.966,2.63,3.154,3.154,0,0,0,2.414,1.015,3.907,3.907,0,0,0,2.28-.649v-1.6h-2.581V5.308H114V10.4a6.8,6.8,0,0,1-5.111,1.9A6.1,6.1,0,0,1,104.378,10.568Zm114.284.2a5.168,5.168,0,0,1-1.382-3.893V.164h2.829V6.806a3.1,3.1,0,0,0,.632,2.131,2.268,2.268,0,0,0,1.748.7,2.306,2.306,0,0,0,1.748-.665,2.992,2.992,0,0,0,.633-2.08V.164H227.7V6.79a6.559,6.559,0,0,1-.366,2.313,4.414,4.414,0,0,1-1.032,1.649,4.441,4.441,0,0,1-1.664,1.014,6.872,6.872,0,0,1-2.179.333A5.243,5.243,0,0,1,218.662,10.767ZM26.2,11.983,22.8,3.627,20.358,9.635h2.579v2.348H16.528L21.539.182h2.579l5.027,11.8Zm227.694-.067L253.98.145l2.692.02h.224l-.086,11.549v.2h0v.021Zm-181.275,0L72.7.145,75.4.164h.225l-.088,11.771Zm221.658.018L288.85,4.81v7.123h-2.8V.164h2.579l5.244,6.892V.164h2.813V11.933Zm-25.316-.467a6.277,6.277,0,0,1-1.949-1.281,5.679,5.679,0,0,1-1.248-1.848,5.777,5.777,0,0,1-.449-2.264V6.041a5.8,5.8,0,0,1,.449-2.28A5.939,5.939,0,0,1,268.994.6a6.341,6.341,0,0,1,2.479-.467,6.424,6.424,0,0,1,2.5.467,6.032,6.032,0,0,1,1.93,1.281,5.636,5.636,0,0,1,1.267,1.848,5.812,5.812,0,0,1,.448,2.28v.033a5.8,5.8,0,0,1-.448,2.264,6.324,6.324,0,0,1-1.281,1.881,5.941,5.941,0,0,1-1.948,1.281,6.868,6.868,0,0,1-4.976,0Zm1.181-8.672a2.814,2.814,0,0,0-1.015.733,3.458,3.458,0,0,0-.7,1.1,3.786,3.786,0,0,0-.249,1.382v.033a3.844,3.844,0,0,0,.249,1.382,3.533,3.533,0,0,0,.7,1.115,3.214,3.214,0,0,0,2.346,1,3.356,3.356,0,0,0,1.3-.25,3.06,3.06,0,0,0,1.031-.733,3.3,3.3,0,0,0,.682-1.115,3.771,3.771,0,0,0,.249-1.365V6.041a3.8,3.8,0,0,0-.249-1.382,3.352,3.352,0,0,0-1.748-1.865,3.3,3.3,0,0,0-2.6,0Zm-68.559,9.139V.164h2.829V9.5h5.827v2.43Zm-17.094-.467a6.3,6.3,0,0,1-1.949-1.281,5.68,5.68,0,0,1-1.248-1.848,5.777,5.777,0,0,1-.449-2.264V6.041a5.805,5.805,0,0,1,.449-2.28A5.939,5.939,0,0,1,184.522.6,6.343,6.343,0,0,1,187,.131,6.422,6.422,0,0,1,189.5.6a6.032,6.032,0,0,1,1.93,1.281A5.624,5.624,0,0,1,192.7,3.728a5.811,5.811,0,0,1,.448,2.28v.033A5.8,5.8,0,0,1,192.7,8.3a6.323,6.323,0,0,1-1.281,1.881,5.941,5.941,0,0,1-1.948,1.281,6.868,6.868,0,0,1-4.976,0Zm1.181-8.672a2.814,2.814,0,0,0-1.015.733,3.484,3.484,0,0,0-.7,1.1,3.787,3.787,0,0,0-.25,1.382v.033a3.845,3.845,0,0,0,.25,1.382,3.56,3.56,0,0,0,.7,1.115,3.214,3.214,0,0,0,2.347,1,3.349,3.349,0,0,0,1.3-.25,3.081,3.081,0,0,0,1.032-.733,3.329,3.329,0,0,0,.684-1.115,3.754,3.754,0,0,0,.248-1.365V6.041a3.785,3.785,0,0,0-.248-1.382,3.367,3.367,0,0,0-1.748-1.865,3.3,3.3,0,0,0-2.6,0ZM91.73,11.933,86.3,4.81v7.123h-2.8V.164h2.581l5.242,6.892V.164h2.814V11.933Zm-46.872,0L39.43,4.81v7.123h-2.8V.164h2.581l5.242,6.892V.164h2.814V11.933ZM239.4,11.915V2.628h-3.545V.164h9.921V2.628h-3.546v9.287Zm-73.036-.465A7.106,7.106,0,0,1,164,10.019l1.6-1.914a8.5,8.5,0,0,0,1.713,1.114,4.317,4.317,0,0,0,1.748.366,2.083,2.083,0,0,0,1.116-.266.871.871,0,0,0,.4-.766V8.521a1.181,1.181,0,0,0-.084-.45.975.975,0,0,0-.315-.332,3.409,3.409,0,0,0-.682-.3,11.194,11.194,0,0,0-1.15-.35,12.1,12.1,0,0,1-1.6-.481,4.129,4.129,0,0,1-1.232-.667,2.723,2.723,0,0,1-.782-.966,3.36,3.36,0,0,1-.266-1.431V3.511a3.5,3.5,0,0,1,.282-1.414A3.254,3.254,0,0,1,165.6.981a4.081,4.081,0,0,1,1.33-.731,5.292,5.292,0,0,1,1.68-.25,7.253,7.253,0,0,1,2.381.381A6.948,6.948,0,0,1,173,1.513l-1.4,2.014a9.173,9.173,0,0,0-1.615-.9,3.673,3.673,0,0,0-1.414-.3,1.529,1.529,0,0,0-1,.266.8.8,0,0,0-.35.682v.034a.868.868,0,0,0,.117.481.877.877,0,0,0,.35.35,3.5,3.5,0,0,0,.733.3c.315.1.716.2,1.2.333a12.808,12.808,0,0,1,1.582.532,4.745,4.745,0,0,1,1.181.7,2.7,2.7,0,0,1,.733.964,3.432,3.432,0,0,1,.233,1.3V8.3a3.415,3.415,0,0,1-.318,1.515,3.082,3.082,0,0,1-.882,1.132,4.026,4.026,0,0,1-1.381.716,5.957,5.957,0,0,1-1.764.248A8.072,8.072,0,0,1,166.362,11.45Zm-18.907.465V4.859h5.659V7.24H150v2.3h6.507v2.379Zm-11.352,0-4.145-6.09h2.313c1.167,0,1.782-.534,1.832-1.6,0-1.081-.616-1.631-1.881-1.648h-2.413v9.336h-2.831V.164h5.461A4.788,4.788,0,0,1,137.968,1.4a3.641,3.641,0,0,1,1,2.661,3.447,3.447,0,0,1-2.479,3.663l2.863,4.192Zm-74.219,0-3.811-4.36v4.36H55.245V.164h2.828V4.526L61.884.164h3.329L60.038,6.041l5.175,5.875ZM0,11.915V.182H5.543A4.326,4.326,0,0,1,8.705,1.247,2.674,2.674,0,0,1,9.52,3.261,2.906,2.906,0,0,1,8,6.057a2.877,2.877,0,0,1,1.515,2.8,2.66,2.66,0,0,1-.815,2,4.326,4.326,0,0,1-3.162,1.065Zm5.044-4.71-2.281.651V9.569h2.4c1.032-.033,1.548-.4,1.548-1.132a1.243,1.243,0,0,0-.5-1.065,1.049,1.049,0,0,0-.682-.233A2.822,2.822,0,0,0,5.044,7.205Zm-2.281-1.7c1.58-.448,2.446-.683,2.613-.733a3.711,3.711,0,0,0,.965-.333.721.721,0,0,0,.366-.731c0-.766-.516-1.148-1.548-1.183h-2.4ZM147.456,2.563V.182h9.053v2.38Z" transform="translate(0 43.031)" stroke="rgba(0,0,0,0)" stroke-miterlimit="10" stroke-width="1" fill="url(#linear-gradient-48)"/>
    </g>
  </g>
</svg>
