<svg xmlns="http://www.w3.org/2000/svg" xmlns:xlink="http://www.w3.org/1999/xlink" width="286" height="60.188" viewBox="0 0 286 60.188">
  <defs>
    <linearGradient id="linear-gradient" y1="0.844" x2="0.863" gradientUnits="objectBoundingBox">
      <stop offset="0" stop-color="#1657fd"/>
      <stop offset="1" stop-color="#06d0f4"/>
    </linearGradient>
    <linearGradient id="linear-gradient-48" x1="0.5" x2="0.5" y2="1" gradientUnits="objectBoundingBox">
      <stop offset="0" stop-color="#1562fc"/>
      <stop offset="1" stop-color="#05d4f4"/>
    </linearGradient>
  </defs>
  <g id="Logo-white" transform="translate(-99.5 -89.499)">
    <path id="Union_5" data-name="Union 5" d="M-4113.541,155.187v-6.569h6.57v6.569Zm-13.141,0v-6.569h6.571v6.569Zm-13.142,0v-6.569h6.571v6.569Zm19.711-6.57v-6.57h6.572v6.57Zm-13.14,0v-6.57h6.57v6.57Zm-13.141,0v-.034h-.009v-6.571h6.572v.035h.006v6.57Zm39.413-.017v-6.57h.009v-.01h6.572v6.569h-.012v.011Zm6.6-6.57v-6.571h-6.572v-6.57h6.572v6.57h6.569v6.571Zm-52.619-.019v-6.57h6.571v6.57Zm6.571-6.571V128.87H-4153V122.3h6.571v6.57h6.57v6.569Zm17.292-1.431,1.978-8.4a6.269,6.269,0,0,1-2.529-5.038,6.283,6.283,0,0,1,6.281-6.283,6.284,6.284,0,0,1,6.285,6.283,6.269,6.269,0,0,1-2.542,5.047l1.975,8.4Zm28.755-5.121v-6.569h-6.572v-6.571h6.572v6.571h6.569v6.569Zm-46.047-6.588v-6.57H-4153v-6.57h6.571v6.57h6.57v6.57Zm46.047-6.553v-6.569h6.569v6.569Zm-6.572-6.571v-.006h-.035V102.6h6.57v.008h.037v6.569Zm-32.905-.018h-6.57v-6.57h.017v-.017h6.569v6.57h-.016Zm19.729-.017h0v-6.57h-6.571V96h6.571v6.571h6.569v6.57ZM-4120.129,109.141Zm-13.142,0h0v-6.57h-6.572V96h6.572v6.571h6.57v6.57ZM-4133.271,109.141Zm19.711-6.57V96h6.572v6.571Z" transform="translate(4253 -5.999)" stroke="rgba(0,0,0,0)" stroke-miterlimit="10" stroke-width="1" fill="url(#linear-gradient)"/>
    <path id="Union_2" data-name="Union 2" d="M145.262,18.726c-1.617-1.558-2.441-3.852-2.441-6.879V0h5V11.729a5.481,5.481,0,0,0,1.117,3.763,4.01,4.01,0,0,0,3.086,1.235,4.079,4.079,0,0,0,3.086-1.176,5.284,5.284,0,0,0,1.118-3.675V0h5V11.7a11.567,11.567,0,0,1-.646,4.086,7.789,7.789,0,0,1-1.823,2.91,7.825,7.825,0,0,1-2.94,1.793,12.177,12.177,0,0,1-3.851.589A9.263,9.263,0,0,1,145.262,18.726ZM105.984,20.9,97.6,0h5.468l5.174,13.963L113.421,0h5.35l-8.378,20.9Zm27.812-.03-6-14.757-4.321,10.613h4.556v4.144H116.715L125.564.029h4.556L139,20.871Zm31.251-.088V0h5V16.492h10.289v4.292Zm-90.372,0V0h5V16.492H89.96v4.292ZM0,20.783V0H8.642c5.087,0,7.792,2.411,8.143,7.2a6.466,6.466,0,0,1-2.5,5.528A10.137,10.137,0,0,1,8.054,14.61l-2.792-4.2H8.348c2.117,0,3.234-1.03,3.381-3.058,0-2-1.177-3.027-3.47-3.087H5V20.783Zm190.419-.029V4.351h-6.261V0h17.52V4.351h-6.262v16.4Zm-135.559,0V8.289h9.995v4.2h-5.5V16.55H70.851v4.2Zm-9.586,0-4.439-6.791-4.468,6.791H30.751L37.984,10.2,31.045,0h5.763l4.145,6.409L45.126,0h5.616L43.8,10.142l7.232,10.612Zm-23.342,0V0h5V20.754ZM54.859,4.232V.029H70.851v4.2Z" transform="translate(183.323 100.548)" fill="#fff" stroke="rgba(0,0,0,0)" stroke-miterlimit="10" stroke-width="1"/>
    <path id="Union_1" data-name="Union 1" d="M70.951,7.184a3.98,3.98,0,0,1-1.176-2.93,3.981,3.981,0,0,1,1.153-2.874A4.275,4.275,0,0,1,73.951.124h3.541V1.787H73.951a2,2,0,0,0-1.528.712,2.49,2.49,0,0,0-.646,1.731,2.491,2.491,0,0,0,.657,1.788,2.144,2.144,0,0,0,1.641.69,2.656,2.656,0,0,0,1.55-.441V5.182H73.87V3.608h3.622V7.071a4.619,4.619,0,0,1-3.474,1.29A4.147,4.147,0,0,1,70.951,7.184Zm77.686.135a3.513,3.513,0,0,1-.939-2.647V.112h1.923V4.627a2.11,2.11,0,0,0,.43,1.448,1.542,1.542,0,0,0,1.188.475,1.568,1.568,0,0,0,1.188-.452,2.034,2.034,0,0,0,.43-1.414V.112h1.923v4.5a4.459,4.459,0,0,1-.249,1.572,3,3,0,0,1-.7,1.121A3.018,3.018,0,0,1,152.7,8a4.671,4.671,0,0,1-1.481.227A3.564,3.564,0,0,1,148.637,7.319ZM17.809,8.145,15.5,2.466,13.838,6.55h1.753v1.6H11.234L14.641.124h1.753l3.417,8.021ZM172.586,8.1l.058-8,1.83.013h.152l-.058,7.85V8.1h0v.015ZM49.363,8.1l.058-8,1.83.013H51.4l-.06,8Zm150.674.012L196.348,3.27V8.112h-1.9v-8H196.2L199.765,4.8V.112h1.912v8Zm-17.208-.317a4.267,4.267,0,0,1-1.325-.871,3.861,3.861,0,0,1-.848-1.256,3.927,3.927,0,0,1-.305-1.539V4.106a3.946,3.946,0,0,1,.305-1.55,4.037,4.037,0,0,1,2.2-2.15,4.31,4.31,0,0,1,1.685-.317,4.367,4.367,0,0,1,1.7.317,4.1,4.1,0,0,1,1.312.871,3.831,3.831,0,0,1,.861,1.256,3.95,3.95,0,0,1,.3,1.55v.022a3.939,3.939,0,0,1-.3,1.539,4.3,4.3,0,0,1-.871,1.279,4.038,4.038,0,0,1-1.324.871,4.669,4.669,0,0,1-3.383,0Zm.8-5.9a1.913,1.913,0,0,0-.69.5,2.351,2.351,0,0,0-.476.747,2.574,2.574,0,0,0-.169.939v.022a2.613,2.613,0,0,0,.169.939,2.4,2.4,0,0,0,.476.758,2.185,2.185,0,0,0,1.595.679,2.281,2.281,0,0,0,.883-.17,2.08,2.08,0,0,0,.7-.5,2.245,2.245,0,0,0,.464-.758,2.563,2.563,0,0,0,.169-.928V4.106a2.584,2.584,0,0,0-.169-.939A2.279,2.279,0,0,0,185.4,1.9a2.242,2.242,0,0,0-1.765,0Zm-46.6,6.212v-8h1.923V6.46h3.961V8.112Zm-11.62-.317a4.284,4.284,0,0,1-1.325-.871,3.861,3.861,0,0,1-.848-1.256,3.927,3.927,0,0,1-.305-1.539V4.106a3.946,3.946,0,0,1,.305-1.55,4.037,4.037,0,0,1,2.2-2.15,4.312,4.312,0,0,1,1.686-.317,4.365,4.365,0,0,1,1.7.317,4.1,4.1,0,0,1,1.312.871,3.823,3.823,0,0,1,.861,1.256,3.95,3.95,0,0,1,.3,1.55v.022a3.939,3.939,0,0,1-.3,1.539,4.3,4.3,0,0,1-.871,1.279,4.038,4.038,0,0,1-1.324.871,4.669,4.669,0,0,1-3.383,0Zm.8-5.9a1.913,1.913,0,0,0-.69.5,2.368,2.368,0,0,0-.476.747,2.574,2.574,0,0,0-.17.939v.022a2.613,2.613,0,0,0,.17.939,2.42,2.42,0,0,0,.476.758,2.185,2.185,0,0,0,1.6.679,2.276,2.276,0,0,0,.882-.17,2.094,2.094,0,0,0,.7-.5,2.263,2.263,0,0,0,.465-.758,2.552,2.552,0,0,0,.168-.928V4.106a2.573,2.573,0,0,0-.168-.939A2.289,2.289,0,0,0,127.977,1.9a2.246,2.246,0,0,0-1.766,0ZM62.354,8.112,58.665,3.27V8.112h-1.9v-8h1.754L62.081,4.8V.112h1.913v8Zm-31.862,0L26.8,3.27V8.112H24.9v-8h1.754L30.22,4.8V.112h1.913v8ZM162.733,8.1V1.787h-2.41V.112h6.744V1.787h-2.41V8.1Zm-49.647-.316a4.83,4.83,0,0,1-1.606-.973l1.087-1.3a5.781,5.781,0,0,0,1.165.757,2.934,2.934,0,0,0,1.188.249,1.416,1.416,0,0,0,.758-.181.592.592,0,0,0,.271-.52V5.792a.8.8,0,0,0-.057-.306.663.663,0,0,0-.214-.226,2.317,2.317,0,0,0-.463-.2,7.609,7.609,0,0,0-.782-.238,8.223,8.223,0,0,1-1.085-.327,2.807,2.807,0,0,1-.837-.453,1.851,1.851,0,0,1-.532-.657,2.284,2.284,0,0,1-.181-.973V2.386a2.381,2.381,0,0,1,.192-.961,2.212,2.212,0,0,1,.578-.758,2.775,2.775,0,0,1,.9-.5A3.6,3.6,0,0,1,114.613,0a4.93,4.93,0,0,1,1.618.259,4.723,4.723,0,0,1,1.369.769L116.65,2.4a6.235,6.235,0,0,0-1.1-.611,2.5,2.5,0,0,0-.961-.2,1.039,1.039,0,0,0-.679.181.544.544,0,0,0-.238.463v.023a.59.59,0,0,0,.08.327.6.6,0,0,0,.238.238,2.379,2.379,0,0,0,.5.2c.214.068.487.136.814.227a8.706,8.706,0,0,1,1.076.362,3.225,3.225,0,0,1,.8.476,1.839,1.839,0,0,1,.5.656,2.333,2.333,0,0,1,.159.883v.022a2.321,2.321,0,0,1-.216,1.03,2.1,2.1,0,0,1-.6.769,2.737,2.737,0,0,1-.939.487,4.049,4.049,0,0,1-1.2.169A5.487,5.487,0,0,1,113.086,7.784ZM100.234,8.1V3.3h3.847V4.921h-2.116V6.483h4.423V8.1Zm-7.717,0L89.7,3.96h1.572c.793,0,1.211-.363,1.245-1.087,0-.735-.419-1.109-1.279-1.12H89.6V8.1H87.674V.112h3.712a3.255,3.255,0,0,1,2.4.839,2.475,2.475,0,0,1,.678,1.809,2.343,2.343,0,0,1-1.685,2.49L94.724,8.1Zm-50.451,0L39.475,5.136V8.1H37.553V.112h1.922V3.077L42.066.112h2.263L40.811,4.106,44.329,8.1ZM0,8.1V.124H3.768A2.941,2.941,0,0,1,5.917.848a1.818,1.818,0,0,1,.554,1.369,1.976,1.976,0,0,1-1.03,1.9,1.955,1.955,0,0,1,1.03,1.9,1.808,1.808,0,0,1-.554,1.358A2.941,2.941,0,0,1,3.768,8.1ZM3.428,4.9l-1.55.442V6.5H3.507c.7-.022,1.052-.271,1.052-.769a.845.845,0,0,0-.339-.724.713.713,0,0,0-.464-.159A1.918,1.918,0,0,0,3.428,4.9ZM1.878,3.744c1.074-.3,1.663-.465,1.776-.5A2.523,2.523,0,0,0,4.31,3.02a.49.49,0,0,0,.249-.5c0-.52-.351-.781-1.052-.8H1.878Zm98.356-2V.124h6.154V1.742Z" transform="translate(183.323 129.798)" stroke="rgba(0,0,0,0)" stroke-miterlimit="10" stroke-width="1" fill="url(#linear-gradient-48)"/>
  </g>
</svg>
